<?xml version="1.0" encoding="UTF-8" standalone="no"?>
<svg
   xmlns:dc="http://purl.org/dc/elements/1.1/"
   xmlns:cc="http://creativecommons.org/ns#"
   xmlns:rdf="http://www.w3.org/1999/02/22-rdf-syntax-ns#"
   xmlns:svg="http://www.w3.org/2000/svg"
   xmlns="http://www.w3.org/2000/svg"
   xmlns:sodipodi="http://sodipodi.sourceforge.net/DTD/sodipodi-0.dtd"
   xmlns:inkscape="http://www.inkscape.org/namespaces/inkscape"
   width="110mm"
   height="110mm"
   viewBox="0 0 110 110"
   version="1.1"
   id="svg8"
   inkscape:version="1.0.1 (3bc2e813f5, 2020-09-07)"
   sodipodi:docname="copy.svg">
  <defs
     id="defs2" />
  <sodipodi:namedview
     id="base"
     pagecolor="#ffffff"
     bordercolor="#666666"
     borderopacity="1.0"
     inkscape:pageopacity="0.0"
     inkscape:pageshadow="2"
     inkscape:zoom="0.35"
     inkscape:cx="400"
     inkscape:cy="560"
     inkscape:document-units="mm"
     inkscape:current-layer="layer1"
     inkscape:document-rotation="0"
     showgrid="false"
     inkscape:window-width="1366"
     inkscape:window-height="705"
     inkscape:window-x="-8"
     inkscape:window-y="-8"
     inkscape:window-maximized="1" />
  <metadata
     id="metadata5">
    <rdf:RDF>
      <cc:Work
         rdf:about="">
        <dc:format>image/svg+xml</dc:format>
        <dc:type
           rdf:resource="http://purl.org/dc/dcmitype/StillImage" />
        <dc:title></dc:title>
      </cc:Work>
    </rdf:RDF>
  </metadata>
  <g
     inkscape:label="Layer 1"
     inkscape:groupmode="layer"
     id="layer1">
    <path
       style="fill:#808080;stroke-width:0.2032"
       d="m 48.337682,104.7828 c -4.16599,-0.39531 -9.45287,-1.57663 -13.13552,-2.93504 -3.23361,-1.19278 -7.89359,-3.573596 -10.84208,-5.539296 -13.37004,-8.91355 -21.6785601,-22.88823 -23.1613901,-38.95679 -0.98560004,-10.68036 1.7257,-22.11506 7.46252,-31.472571 4.1038701,-6.69396 10.5523401,-13.14243 17.2463001,-17.24631 15.2546,-9.35215 34.321544,-10.16298 50.346744,-2.141 8.43136,4.22061 16.16224,11.32158 21.1071,19.38731 5.736824,9.357511 8.448124,20.792211 7.462524,31.472571 -1.48283,16.06856 -9.791354,30.04324 -23.161394,38.95679 -2.94848,1.9657 -7.60847,4.346516 -10.84208,5.539296 -6.78667,2.50339 -15.30811,3.61583 -22.482724,2.93504 z M 59.310486,92.914754 c 17.89376,-2.96076 31.75103,-17.39361 33.83919,-35.24474 1.44383,-12.34298 -2.83661,-24.498121 -11.75087,-33.368861 -15.70519,-15.62851 -41.069854,-15.62851 -56.775044,0 -13.31097,13.245981 -15.8566201,33.524111 -6.2115,49.479411 5.56202,9.20089 14.36515,15.71733 24.84542,18.3916 1.28524,0.32795 3.15976,0.69784 4.1656,0.82196 1.00584,0.12413 2.103124,0.26352 2.438404,0.30977 1.28013,0.17657 7.6038,-0.0839 9.4488,-0.38914 z m -8.636,-9.86201 c -10.599694,-1.18164 -19.766354,-7.83318 -24.217864,-17.57307 -4.1163,-9.00642 -3.49934,-19.63931 1.63296,-28.1432 4.14823,-6.873331 11.16164,-11.973521 18.95709,-13.785681 13.910514,-3.23369 27.993604,3.48764 34.109204,16.279051 0.60002,1.25501 1.27072,2.76189 1.49045,3.34863 l 0.39952,1.0668 h -6.25582 -6.2558 l -0.88747,-1.3716 c -1.65088,-2.55147 -4.62388,-5.2079 -7.38987,-6.60298 -1.67395,-0.84429 -4.30813,-1.57699 -6.54936,-1.82171 -7.539414,-0.82323 -15.015354,3.35388 -18.442004,10.30429 -1.4853,3.01269 -1.82394,4.5406 -1.82394,8.2296 0,2.65561 0.0714,3.39782 0.45518,4.73222 2.229,7.75019 8.63347,13.12711 16.504924,13.85684 2.95199,0.27366 7.1926,-0.53394 9.8552,-1.87688 2.76599,-1.39508 5.73899,-4.05151 7.38987,-6.60298 l 0.88747,-1.3716 h 6.2558 6.25582 l -0.40059,1.0668 c -0.7445,1.98269 -2.3759,5.2268 -3.47524,6.91068 -4.41642,6.76472 -11.76695,11.60035 -19.85953,13.06482 -2.13556,0.38647 -6.46606,0.53187 -8.636,0.28997 z"
       id="path24" />
  </g>
</svg>
